HIERARCHY
ROOT joint_Root
{
	OFFSET 0.0 0.0 0.0
	CHANNELS 6 Xposition Yposition Zposition Zrotation Xrotation Yrotation 
	JOINT Hips
	{
		OFFSET -17.1583 93.1646 452.98
		CHANNELS 6 Xposition Yposition Zposition Zrotation Xrotation Yrotation 
		JOINT Spine
		{
			OFFSET 15.7357 0.0 0.0
			CHANNELS 6 Xposition Yposition Zposition Zrotation Xrotation Yrotation 
			JOINT Chest
			{
				OFFSET 8.98455 -0.406207 0.0
				CHANNELS 6 Xposition Yposition Zposition Zrotation Xrotation Yrotation 
				JOINT Neck
				{
					OFFSET 16.3773 0.0 0.0
					CHANNELS 6 Xposition Yposition Zposition Zrotation Xrotation Yrotation 
					JOINT Head
					{
						OFFSET 6.45672 0.0 0.0
						CHANNELS 6 Xposition Yposition Zposition Zrotation Xrotation Yrotation 
						End Site
						{
							OFFSET 0.0 0.0 0.0
						}
					}
				}
				JOINT Shoulder_L
				{
					OFFSET 12.9942 -0.242716 4.98039
					CHANNELS 6 Xposition Yposition Zposition Zrotation Xrotation Yrotation 
					JOINT UpperArm_L
					{
						OFFSET 5.34809 0.0 0.0
						CHANNELS 6 Xposition Yposition Zposition Zrotation Xrotation Yrotation 
						JOINT LowerArm_L
						{
							OFFSET 24.3286 1.87007e-05 0.0
							CHANNELS 6 Xposition Yposition Zposition Zrotation Xrotation Yrotation 
							JOINT Hand_L
							{
								OFFSET 22.2916 0.0 0.0
								CHANNELS 6 Xposition Yposition Zposition Zrotation Xrotation Yrotation 
								End Site
								{
									OFFSET 0.0 0.0 0.0
								}
							}
						}
					}
				}
				JOINT Shoulder_R
				{
					OFFSET 12.9945 -0.242716 -4.98039
					CHANNELS 6 Xposition Yposition Zposition Zrotation Xrotation Yrotation 
					JOINT UpperArm_R
					{
						OFFSET -5.34813 0.0 0.0
						CHANNELS 6 Xposition Yposition Zposition Zrotation Xrotation Yrotation 
						JOINT LowerArm_R
						{
							OFFSET -24.3289 0.000322201 0.0
							CHANNELS 6 Xposition Yposition Zposition Zrotation Xrotation Yrotation 
							JOINT Hand_R
							{
								OFFSET -22.2915 -0.000108084 0.0
								CHANNELS 6 Xposition Yposition Zposition Zrotation Xrotation Yrotation 
								End Site
								{
									OFFSET 0.0 0.0 0.0
								}
							}
						}
					}
				}
			}
		}
		JOINT UpperLeg_L
		{
			OFFSET -2.19248 -6.46944 0.0
			CHANNELS 6 Xposition Yposition Zposition Zrotation Xrotation Yrotation 
			JOINT LowerLeg_L
			{
				OFFSET 39.0811 0.0 -1.23785e-05
				CHANNELS 6 Xposition Yposition Zposition Zrotation Xrotation Yrotation 
				JOINT Foot_L
				{
					OFFSET 40.9854 0.0 -1.26872e-05
					CHANNELS 6 Xposition Yposition Zposition Zrotation Xrotation Yrotation 
					JOINT Toes_L
					{
						OFFSET 11.7543 0.0 0.0
						CHANNELS 6 Xposition Yposition Zposition Zrotation Xrotation Yrotation 
						End Site
						{
							OFFSET 0.0 0.0 0.0
						}
					}
				}
			}
		}
		JOINT UpperLeg_R
		{
			OFFSET -2.19251 6.46944 0.0
			CHANNELS 6 Xposition Yposition Zposition Zrotation Xrotation Yrotation 
			JOINT LowerLeg_R
			{
				OFFSET -39.0811 -0.00228153 -0.0401928
				CHANNELS 6 Xposition Yposition Zposition Zrotation Xrotation Yrotation 
				JOINT Foot_R
				{
					OFFSET -40.9854 0.0 0.0
					CHANNELS 6 Xposition Yposition Zposition Zrotation Xrotation Yrotation 
					JOINT Toes_R
					{
						OFFSET -11.7543 0.0 0.0
						CHANNELS 6 Xposition Yposition Zposition Zrotation Xrotation Yrotation 
						End Site
						{
							OFFSET 0.0 0.0 0.0
						}
					}
				}
			}
		}
	}
}
MOTION
Frames:	9
Frame Time:	0.0333333
0.000000 0.000000 0.000000 0.000000 0.000000 -0.000000 -1.638270 88.802100 -57.071000 86.903900 -0.644426 -11.896200 15.735700 0.000005 -0.000001 64.585200 83.962100 -62.376800 8.984550 -0.406207 -0.000000 3.258310 -5.263710 4.564310 16.377300 -0.000001 -0.000001 -10.276700 4.111160 -1.609560 6.456720 -0.000001 -0.000000 2.021740 7.464020 1.289270 12.994200 -0.242716 4.980390 -90.852700 3.650290 -76.844400 5.348090 -0.000007 -0.000001 -63.763700 3.990030 -8.624430 24.328600 0.000019 0.000005 36.800400 16.629500 -69.078700 22.291600 -0.000001 0.000005 11.659100 4.709060 12.994600 12.994500 -0.242716 -4.980390 89.668800 1.315080 -75.864500 -5.348130 -0.000001 -0.000004 -58.820600 -14.079000 18.412800 -24.328900 0.000322 -0.000009 -0.003932 22.933100 0.000107 -22.291500 -0.000108 -0.000004 9.020000 4.979630 7.707000 -2.192480 -6.469440 -0.000000 -178.825000 -4.218380 -7.379430 39.081100 -0.000007 -0.000012 -0.029096 0.046640 31.958800 40.985400 -0.000006 -0.000013 -1.861800 11.062600 -76.882900 11.754300 -0.000000 0.000003 -0.004786 -0.059392 -18.993200 -2.192510 6.469440 -0.000001 -175.653000 -2.980560 126.135000 -39.081100 -0.002282 -0.040193 -0.028523 -0.004647 98.147200 -40.985400 0.000008 0.000006 -4.808300 -9.338830 -52.556500 -11.754300 -0.000006 -0.000006 0.000573 0.157388 -10.190200
0.000000 0.000000 0.000000 0.000000 0.000000 -0.000000 -2.462190 92.053900 -47.162700 83.277000 0.906911 -16.032000 15.735700 0.000005 -0.000001 49.867800 85.093400 -45.789500 8.984550 -0.406207 -0.000000 -0.010870 -6.600030 8.158360 16.377300 -0.000001 -0.000001 -9.685870 4.525760 -1.918390 6.456720 -0.000001 -0.000000 2.908780 8.870410 0.184758 12.994200 -0.242716 4.980390 -90.506900 2.250870 -77.304900 5.348090 -0.000007 -0.000001 -65.023100 3.881800 -9.360030 24.328600 0.000019 0.000005 35.513800 8.536410 -78.251000 22.291600 -0.000001 0.000005 20.764100 4.801360 11.333900 12.994500 -0.242716 -4.980390 90.209300 -0.869217 -76.449500 -5.348130 -0.000001 -0.000004 -55.484400 -15.621300 23.362300 -24.328900 0.000322 -0.000009 -0.000486 26.619700 0.000128 -22.291500 -0.000108 -0.000004 10.814800 4.518170 16.347800 -2.192480 -6.469440 -0.000000 -174.752000 -5.253450 -1.805830 39.081100 -0.000007 -0.000012 0.003153 -0.008899 19.512000 40.985400 -0.000006 -0.000013 -0.488412 9.183470 -57.039700 11.754300 -0.000000 0.000003 -0.075162 -0.378199 -32.258500 -2.192510 6.469440 -0.000001 -171.927000 -5.361500 121.989000 -39.081100 -0.002282 -0.040193 -0.039090 0.005510 82.489500 -40.985400 0.000008 0.000006 -6.844890 -13.909400 -60.180400 -11.754300 -0.000006 -0.000006 0.000289 0.162646 -9.976710
0.000000 0.000000 0.000000 0.000000 0.000000 -0.000000 -2.430700 94.452400 -36.844300 83.200400 0.015997 -16.947800 15.735700 0.000005 -0.000001 43.485700 85.408700 -39.047300 8.984550 -0.406207 -0.000000 -1.160490 -7.006340 8.811650 16.377300 -0.000001 -0.000001 -10.005800 5.324240 -2.321810 6.456720 -0.000001 -0.000000 4.071940 9.868550 -0.264412 12.994200 -0.242716 4.980390 -90.538900 2.347030 -77.066200 5.348090 -0.000007 -0.000001 -65.832400 4.045310 -10.106600 24.328600 0.000019 0.000005 40.247000 4.157370 -85.097300 22.291600 -0.000001 0.000005 27.018200 4.774020 11.785600 12.994500 -0.242716 -4.980390 90.460200 -1.883690 -76.267600 -5.348130 -0.000001 -0.000004 -53.162400 -14.340100 25.866900 -24.328900 0.000322 -0.000009 -0.001358 34.164100 0.000175 -22.291500 -0.000108 -0.000004 4.455270 4.074030 23.184100 -2.192480 -6.469440 -0.000000 -174.971000 -8.313030 4.330070 39.081100 -0.000007 -0.000012 0.009303 -0.045859 11.467900 40.985400 -0.000006 -0.000013 -1.244440 8.209640 -37.091100 11.754300 -0.000000 0.000003 -0.020514 -0.170130 -23.528700 -2.192510 6.469440 -0.000001 -173.349000 -7.561530 124.107000 -39.081100 -0.002282 -0.040193 -0.024811 0.013621 64.045100 -40.985400 0.000008 0.000006 -7.646700 -14.177600 -65.958400 -11.754300 -0.000006 -0.000006 0.000331 0.161890 -10.007400
0.000000 0.000000 0.000000 0.000000 0.000000 -0.000000 -2.100310 95.492000 -26.176000 84.651500 -1.259820 -15.847100 15.735700 0.000005 -0.000001 41.336700 85.285500 -37.413000 8.984550 -0.406207 -0.000000 -1.274660 -7.387360 7.771380 16.377300 -0.000001 -0.000001 -9.666990 5.792040 -2.159260 6.456720 -0.000001 -0.000000 4.713220 10.791300 -0.313982 12.994200 -0.242716 4.980390 -90.639100 2.726630 -76.803800 5.348090 -0.000007 -0.000001 -66.597300 4.152370 -9.240120 24.328600 0.000019 0.000005 43.601200 1.784410 -88.127200 22.291600 -0.000001 0.000005 28.519700 4.738520 12.459100 12.994500 -0.242716 -4.980390 90.409900 -1.589200 -75.533400 -5.348130 -0.000001 -0.000004 -51.642900 -11.048300 25.271100 -24.328900 0.000322 -0.000009 -0.001083 36.181800 0.000189 -22.291500 -0.000108 -0.000004 -3.010020 4.228850 20.846500 -2.192480 -6.469440 -0.000000 -176.503000 -10.597200 8.092110 39.081100 -0.000007 -0.000012 0.022978 -0.081694 15.710100 40.985400 -0.000006 -0.000013 -1.149110 7.283050 -33.314700 11.754300 -0.000000 0.000003 0.002054 0.048828 -14.596200 -2.192510 6.469440 -0.000001 -176.050000 -8.121980 130.549000 -39.081100 -0.002282 -0.040193 -0.006883 0.010432 44.215900 -40.985400 0.000008 0.000006 -8.998290 -9.477700 -70.383900 -11.754300 -0.000006 -0.000006 -0.000012 0.167873 -9.764490
0.000000 0.000000 0.000000 0.000000 0.000000 -0.000000 -1.806740 95.079400 -15.483000 86.777000 -0.977212 -14.482800 15.735700 0.000005 -0.000001 38.179000 84.942600 -34.974800 8.984550 -0.406207 -0.000000 -1.278100 -8.202170 6.323230 16.377300 -0.000001 -0.000001 -8.952940 5.796350 -2.370860 6.456720 -0.000001 -0.000000 4.817580 10.939000 -0.092866 12.994200 -0.242716 4.980390 -90.574200 2.505010 -77.086400 5.348090 -0.000007 -0.000001 -68.423600 4.660620 -7.174850 24.328600 0.000019 0.000005 41.810300 3.149580 -86.482900 22.291600 -0.000001 0.000005 27.433200 4.740220 12.427600 12.994500 -0.242716 -4.980390 90.313400 -1.204700 -75.414600 -5.348130 -0.000001 -0.000004 -50.885900 -10.520800 24.203000 -24.328900 0.000322 -0.000009 -0.001107 32.694300 0.000166 -22.291500 -0.000108 -0.000004 -3.221340 4.327820 19.363300 -2.192480 -6.469440 -0.000000 -178.780000 -9.267220 8.197610 39.081100 -0.000007 -0.000012 0.054898 -0.101380 28.435600 40.985400 -0.000006 -0.000013 -1.867330 7.205600 -33.835600 11.754300 -0.000000 0.000003 0.001988 0.046253 -14.700600 -2.192510 6.469440 -0.000001 -177.966000 -5.891660 138.011000 -39.081100 -0.002282 -0.040193 -0.011747 0.030475 26.292600 -40.985400 0.000008 0.000006 -12.118300 -3.945650 -74.519900 -11.754300 -0.000006 -0.000006 0.000451 0.159696 -10.096500
0.000000 0.000000 0.000000 0.000000 0.000000 -0.000000 -1.615370 93.620500 -4.538390 88.067500 -1.364210 -12.159900 15.735700 0.000005 -0.000001 44.724700 84.797000 -41.979500 8.984550 -0.406207 -0.000000 -0.251372 -7.583690 5.476910 16.377300 -0.000001 -0.000001 -8.666820 5.506000 -2.600290 6.456720 -0.000001 -0.000000 4.791010 10.238400 -0.731234 12.994200 -0.242716 4.980390 -90.573600 2.512560 -77.135500 5.348090 -0.000007 -0.000001 -70.938200 6.172530 -4.949840 24.328600 0.000019 0.000005 37.973900 6.968030 -81.159100 22.291600 -0.000001 0.000005 22.120300 4.733700 12.537600 12.994500 -0.242716 -4.980390 90.295400 -1.134360 -75.403500 -5.348130 -0.000001 -0.000004 -51.115800 -12.314300 21.715200 -24.328900 0.000322 -0.000009 -0.001158 29.736900 0.000147 -22.291500 -0.000108 -0.000004 0.229727 4.364170 18.796300 -2.192480 -6.469440 -0.000000 178.779000 -6.468050 8.089500 39.081100 -0.000007 -0.000012 0.090302 -0.101796 41.575000 40.985400 -0.000006 -0.000013 -5.828310 5.802160 -31.219500 11.754300 -0.000000 0.000003 0.002090 0.050314 -14.535900 -2.192510 6.469440 -0.000001 -178.786000 -4.503010 144.321000 -39.081100 -0.002282 -0.040193 -0.014004 0.055052 17.473600 -40.985400 0.000008 0.000006 -15.537100 -1.785470 -77.159200 -11.754300 -0.000006 -0.000006 0.000654 0.155816 -10.254000
0.000000 0.000000 0.000000 0.000000 0.000000 -0.000000 -1.773190 91.180600 6.118000 87.623000 -2.414490 -10.638000 15.735700 0.000005 -0.000001 55.720500 85.062000 -52.890000 8.984550 -0.406207 -0.000000 0.547602 -5.738880 5.688150 16.377300 -0.000001 -0.000001 -8.514820 5.172700 -2.597850 6.456720 -0.000001 -0.000000 4.550750 9.138120 -1.338270 12.994200 -0.242716 4.980390 -90.876100 3.642360 -76.469200 5.348090 -0.000007 -0.000001 -71.905500 8.686020 -2.182010 24.328600 0.000019 0.000005 33.197600 11.374600 -73.220600 22.291600 -0.000001 0.000005 15.443600 4.841490 10.470200 12.994500 -0.242716 -4.980390 90.043000 -0.163279 -75.208900 -5.348130 -0.000001 -0.000004 -51.899500 -11.701500 17.009100 -24.328900 0.000322 -0.000009 -0.000946 27.758100 0.000135 -22.291500 -0.000108 -0.000004 1.783130 4.503870 16.540900 -2.192480 -6.469440 -0.000000 179.556000 -7.905910 4.842180 39.081100 -0.000007 -0.000012 0.212768 -0.137119 57.199400 40.985400 -0.000006 -0.000013 -6.598780 4.643390 -31.202900 11.754300 -0.000000 0.000003 0.002110 0.051138 -14.502500 -2.192510 6.469440 -0.000001 -176.586000 -2.558820 146.323000 -39.081100 -0.002282 -0.040193 -0.020671 0.063812 20.604500 -40.985400 0.000008 0.000006 -14.717000 -2.619720 -79.277500 -11.754300 -0.000006 -0.000006 0.001782 0.128519 -11.361500
0.000000 0.000000 0.000000 0.000000 0.000000 -0.000000 -2.308090 88.045300 15.621100 85.471300 -2.856270 -12.051600 15.735700 0.000005 -0.000001 66.219200 85.933500 -62.697700 8.984550 -0.406207 -0.000000 -0.204647 -3.523450 7.034320 16.377300 -0.000001 -0.000001 -8.879070 4.774520 -2.559430 6.456720 -0.000001 -0.000000 4.275850 7.778180 -1.378860 12.994200 -0.242716 4.980390 -91.467000 5.693830 -75.528000 5.348090 -0.000007 -0.000001 -71.129400 11.163000 0.914606 24.328600 0.000019 0.000005 31.069300 17.422800 -63.583300 22.291600 -0.000001 0.000005 8.521900 4.980070 7.698220 12.994500 -0.242716 -4.980390 89.592400 1.537300 -75.149300 -5.348130 -0.000001 -0.000004 -52.726400 -9.173330 10.729100 -24.328900 0.000322 -0.000009 -0.001379 25.001200 0.000119 -22.291500 -0.000108 -0.000004 2.987320 4.669630 13.703600 -2.192480 -6.469440 -0.000000 -176.757000 -10.794600 -4.943830 39.081100 -0.000007 -0.000012 0.526663 -0.133147 75.811900 40.985400 -0.000006 -0.000013 -6.428300 -1.573440 -32.721500 11.754300 -0.000000 0.000003 0.002312 0.061542 -14.080600 -2.192510 6.469440 -0.000001 -171.130000 -1.087620 138.385000 -39.081100 -0.002282 -0.040193 0.355005 -0.437406 38.803800 -40.985400 0.000008 0.000006 1.341940 -6.972230 -69.759200 -11.754300 -0.000006 -0.000006 -0.000847 0.180879 -9.236130
0.000000 0.000000 0.000000 0.000000 0.000000 -0.000000 -2.856540 84.713200 25.227400 84.209700 -2.227240 -9.792260 15.735700 0.000005 -0.000001 80.162200 84.939600 -76.311600 8.984550 -0.406207 -0.000000 2.282960 -1.911830 7.732470 16.377300 -0.000001 -0.000001 -10.049300 4.388560 -2.309420 6.456720 -0.000001 -0.000000 2.958560 6.390860 -1.394500 12.994200 -0.242716 4.980390 -91.979100 7.497730 -75.168600 5.348090 -0.000007 -0.000001 -70.168300 10.022200 3.064560 24.328600 0.000019 0.000005 28.970600 26.671900 -50.970700 22.291600 -0.000001 0.000005 1.636220 4.985070 7.647190 12.994500 -0.242716 -4.980390 89.252500 2.966160 -75.846100 -5.348130 -0.000001 -0.000004 -54.211500 -7.876760 3.563460 -24.328900 0.000322 -0.000009 0.088936 21.433000 -0.255981 -22.291500 -0.000108 -0.000004 2.671990 4.861350 10.122600 -2.192480 -6.469440 -0.000000 -173.706000 -10.897500 -13.191000 39.081100 -0.000007 -0.000012 0.728455 0.031273 92.457300 40.985400 -0.000006 -0.000013 -6.128830 -8.080350 -33.247600 11.754300 -0.000000 0.000003 0.002070 0.049480 -14.569700 -2.192510 6.469440 -0.000001 -169.768000 1.020850 139.296000 -39.081100 -0.002282 -0.040193 0.112185 -0.079480 53.889800 -40.985400 0.000008 0.000006 -1.158200 -4.560930 -78.907500 -11.754300 -0.000006 -0.000006 -0.005364 0.232610 -7.130920
